P3
3 3
255
100 234 50
182 48 30
200 255 78
222 101 26
49 73 123
150 29 90
55 56 57
32 109 250
180 201 130
